<svg id="default" width="30" height="29" viewBox="0 0 30 29" xmlns="http://www.w3.org/2000/svg">
<g id="mdi:hand-heart-outline">
<path id="Vector" d="M20 3.90292C20.8875 2.91208 22.0125 2.41667 23.375 2.41667C24.5125 2.41667 25.4625 2.81542 26.25 3.625C27.0375 4.43458 27.45 5.35292 27.5 6.40417C27.5 7.25 27.0875 8.22875 26.25 9.37667C25.4125 10.5246 24.6 11.4792 23.7875 12.2646C22.975 13.0379 21.7125 14.1858 20 15.7083C18.2625 14.1858 16.9875 13.0379 16.175 12.2646C15.3625 11.4913 14.5375 10.5246 13.7125 9.37667C12.8875 8.22875 12.5 7.25 12.5 6.40417C12.5 5.30458 12.9 4.38625 13.7125 3.625C14.525 2.86375 15.5 2.465 16.6375 2.41667C17.975 2.41667 19.0875 2.91208 20 3.90292ZM27.5 22.9583V24.1667L17.5 27.1875L8.75 24.8433V26.5833H1.25V13.2917H11.2125L18.9125 16.0708C19.5986 16.321 20.1897 16.7671 20.6073 17.3499C21.0248 17.9327 21.249 18.6245 21.25 19.3333H23.75C25.825 19.3333 27.5 20.9525 27.5 22.9583ZM6.25 24.1667V15.7083H3.75V24.1667H6.25ZM24.875 22.4387C24.675 22.04 24.2375 21.75 23.75 21.75H17.0625C16.3875 21.75 15.725 21.6533 15.0875 21.4479L12.1125 20.4933L12.9 18.1975L15.875 19.1521C16.25 19.2729 18.75 19.3333 18.75 19.3333C18.75 18.8863 18.4625 18.4875 18.0375 18.3304L10.7625 15.7083H8.75V22.3542L17.4625 24.6621L24.875 22.4387Z"/>
</g>
</svg>
