<svg id="default_logo" width="55" height="55" viewBox="0 0 55 55" fill="none" xmlns="http://www.w3.org/2000/svg">
<path d="M12.1172 39.7031C6.875 39.2734 2.57812 32.6562 2.57812 32.6562C2.57812 40.8203 9.79687 43.8281 13.0625 42.7109C15.9844 41.7656 12.1172 39.7031 12.1172 39.7031Z" fill="#947151"/>
<path d="M35.4921 48.125C36.9531 49.8438 43.6562 48.125 44.7734 46.1484C49.1562 37.9844 44.7734 32.7422 44.7734 32.7422L35.4921 35.5781C35.4921 35.6641 33.6015 45.9766 35.4921 48.125Z" fill="#EABC92"/>
<path d="M29.2188 51.9063C30.8516 53.7969 36.7813 53.7109 38.5 51.9063C41.0781 49.3281 40.9063 37.5547 41.0781 31.8828L30.1641 30.9375C30.1641 30.9375 27.1563 49.4141 29.2188 51.9063Z" fill="#F5D1AC"/>
<path d="M22.9455 48.125C21.4845 49.8438 14.7814 48.125 13.6642 46.1484C9.28141 37.9844 13.6642 32.7422 13.6642 32.7422L22.9455 35.5781C22.9455 35.6641 24.922 45.9766 22.9455 48.125Z" fill="#EABC92"/>
<path d="M29.3047 51.9063C27.6719 53.7969 21.7422 53.7109 20.0234 51.9063C17.4453 49.3281 17.6172 37.5547 17.4453 31.8828L28.3594 30.9375C28.3594 30.9375 31.3672 49.4141 29.3047 51.9063Z" fill="#F5D1AC"/>
<path d="M29.2188 51.9922C28.9609 50.1875 28.875 48.3828 28.875 46.5781C28.875 44.7734 28.9609 42.9687 29.2188 41.1641C29.4766 42.9687 29.5625 44.7734 29.5625 46.5781C29.5625 48.3828 29.4766 50.1875 29.2188 51.9922Z" fill="#423223"/>
<path d="M29.2188 39.9609C20.4531 39.9609 15.9844 36.5234 15.9844 36.5234C15.9844 36.5234 18.9063 44.3437 29.2188 44.3437C39.5313 44.3437 42.4531 36.5234 42.4531 36.5234C42.4531 36.5234 37.9844 39.9609 29.2188 39.9609Z" fill="#3E4347"/>
<path d="M26.7266 42.1094C26.7266 40.9063 27.2422 39.9609 27.8438 39.875C27.6719 39.7031 27.4141 39.6172 27.2422 39.6172C26.4688 39.6172 25.8672 40.7344 25.8672 42.1094C25.8672 43.4844 26.4688 44.6016 27.2422 44.6016C27.5 44.6016 27.6719 44.4297 27.8438 44.2578C27.2422 44.2578 26.7266 43.3125 26.7266 42.1094Z" fill="white"/>
<path d="M16.7577 36.9531C11.5156 33.6875 9.45306 20.8828 11.1718 15.125C12.4609 10.8281 17.1874 4.46875 21.4843 2.75C25.0937 1.375 33.4296 1.375 37.039 2.75C41.3359 4.38281 46.1484 10.7422 47.3515 15.125C49.0702 20.9688 47.7812 33.6875 42.539 36.9531C31.539 43.8281 27.7578 43.8281 16.7577 36.9531Z" fill="#F5D1AC"/>
<path d="M8.50778 16.4141C11.2578 22.3437 11.9453 22.6016 14.6093 15.5547C15.9843 11.7734 15.039 9.53906 16.6718 7.13281C17.6172 5.75781 19.6797 3.60938 19.6797 3.60938C19.6797 3.60938 3.17966 5.24219 8.50778 16.4141Z" fill="#423223"/>
<path d="M15.469 3.35163C11.344 5.92975 2.49242 4.8985 7.73461 16.0704C10.4846 22.0001 11.1721 22.2579 13.8362 15.211C15.2112 11.4298 14.2659 9.19538 15.8987 6.78913C16.844 5.41413 19.6799 3.60944 19.6799 3.60944C19.6799 3.60944 18.3909 1.54694 15.469 3.35163Z" fill="#947151"/>
<path d="M50.0156 16.4141C47.2656 22.3437 46.5781 22.6016 43.9141 15.5547C42.5391 11.7734 43.4844 9.53906 41.8516 7.13281C40.9062 5.75781 38.8438 3.60938 38.8438 3.60938C38.8438 3.60938 55.3437 5.24219 50.0156 16.4141Z" fill="#423223"/>
<path d="M43.0547 3.35163C47.1797 5.92975 56.1172 4.8985 50.875 16.0704C48.125 22.0001 47.4375 22.2579 44.7734 15.211C43.3984 11.4298 44.3438 9.19538 42.7109 6.78913C41.7656 5.41413 38.9297 3.60944 38.9297 3.60944C38.9297 3.60944 40.1328 1.54694 43.0547 3.35163Z" fill="#947151"/>
<path d="M18.2188 16.5C20.7969 16.5 22.8594 18.4766 22.8594 20.9687C22.8594 23.4609 20.7969 25.4375 18.2188 25.4375C15.6406 25.4375 13.5781 23.4609 13.5781 20.9687C13.5781 18.4766 15.7266 16.5 18.2188 16.5Z" fill="white"/>
<path d="M17.1016 24.3203C19 24.3203 20.5391 22.8198 20.5391 20.9687C20.5391 19.1177 19 17.6172 17.1016 17.6172C15.2031 17.6172 13.6641 19.1177 13.6641 20.9687C13.6641 22.8198 15.2031 24.3203 17.1016 24.3203Z" fill="#3E4347"/>
<path d="M44.8594 20.9687C44.8594 23.4609 42.7969 25.4375 40.2187 25.4375C37.6406 25.4375 35.5781 23.4609 35.5781 20.9687C35.5781 18.4766 37.6406 16.5 40.2187 16.5C42.7969 16.5 44.8594 18.4766 44.8594 20.9687Z" fill="white"/>
<path d="M41.4219 24.3203C43.3204 24.3203 44.8594 22.8198 44.8594 20.9687C44.8594 19.1177 43.3204 17.6172 41.4219 17.6172C39.5234 17.6172 37.9844 19.1177 37.9844 20.9687C37.9844 22.8198 39.5234 24.3203 41.4219 24.3203Z" fill="#3E4347"/>
<path d="M21.3125 34.4609L24.9219 38.0703C27.0703 40.2188 31.5391 40.2188 33.6875 38.0703L37.2969 34.4609L33.5156 30.7656H25.0078L21.3125 34.4609Z" fill="#7D644B"/>
<path d="M29.2187 27.5859C29.2187 27.5859 25.4375 32.8281 25.9531 35.3203C26.5547 38.9297 31.9687 38.9297 32.5703 35.3203C33 32.8281 29.2187 27.5859 29.2187 27.5859Z" fill="#F15A61"/>
<path d="M29.2188 36.6953L30.0781 31.625H28.4453L29.2188 36.6953Z" fill="#BA454B"/>
<path d="M25.3516 29.0469H33.0859V32.4844H25.3516V29.0469Z" fill="#423223"/>
<path d="M41.5078 29.8203L36.0078 24.2344C32.6563 20.8828 25.8672 20.8828 22.6016 24.2344L17.1016 29.8203C15.5547 31.3672 15.5547 33.9453 17.1016 35.5781C18.6484 37.125 21.2266 37.125 22.7734 35.5781L28.2734 29.9922C28.7891 29.4766 29.8203 29.4766 30.3359 29.9922L35.8359 35.5781C37.3828 37.125 39.9609 37.125 41.5078 35.5781C43.0547 34.0312 43.0547 31.4531 41.5078 29.8203Z" fill="#947151"/>
<path d="M24.6641 24.6641C24.6641 22.6875 26.7266 22.3438 29.2187 22.3438C31.7109 22.3438 33.7734 22.6875 33.7734 24.6641C33.7734 26.2109 30.1641 27.5859 29.2187 27.5859C28.3594 27.5859 24.6641 26.2109 24.6641 24.6641ZM23.2891 26.3828L22.5156 27.1562L23.2891 27.9297L24.0625 27.1562L23.2891 26.3828ZM21.4844 28.4453L20.7109 29.2187L21.4844 29.9922L22.2578 29.2187L21.4844 28.4453ZM23.8906 29.2187L23.1172 29.9922L23.8906 30.7656L24.6641 29.9922L23.8906 29.2187ZM35.2344 26.3828L36.0078 27.1562L35.2344 27.9297L34.4609 27.1562L35.2344 26.3828ZM37.0391 28.4453L37.8125 29.2187L37.0391 29.9922L36.2656 29.2187L37.0391 28.4453ZM34.6328 29.2187L35.4063 29.9922L34.6328 30.7656L33.8594 29.9922L34.6328 29.2187Z" fill="#3E4347"/>
</svg>
