<svg id="ong" width="30" height="30" viewBox="0 0 30 30"  xmlns="http://www.w3.org/2000/svg">
<g id="ph:dog">
<path id="Vector" d="M28.0912 14.6484L26.167 4.33594C26.12 4.08457 26.022 3.84547 25.8792 3.63335C25.7364 3.42123 25.5516 3.24058 25.3364 3.1025C25.1211 2.96441 24.8799 2.87182 24.6276 2.83041C24.3752 2.78901 24.117 2.79966 23.869 2.86172L23.8326 2.87227L17.6779 4.6875H12.3225L6.16779 2.87812L6.13146 2.86758C5.88338 2.80552 5.62522 2.79487 5.37286 2.83627C5.1205 2.87768 4.87929 2.97027 4.66404 3.10835C4.44879 3.24644 4.26407 3.42709 4.12122 3.63921C3.97838 3.85133 3.88044 4.09042 3.83342 4.3418L1.9092 14.6484C1.82691 15.0612 1.88799 15.4897 2.08233 15.863C2.27668 16.2364 2.59263 16.5322 2.97795 16.7016C3.22471 16.8147 3.4928 16.8739 3.76428 16.875C4.0892 16.8748 4.40813 16.7874 4.68771 16.6219V21.5625C4.68771 22.8057 5.18157 23.998 6.06065 24.8771C6.93973 25.7561 8.13201 26.25 9.37521 26.25H20.6252C21.8684 26.25 23.0607 25.7561 23.9398 24.8771C24.8188 23.998 25.3127 22.8057 25.3127 21.5625V16.623C25.592 16.7883 25.9105 16.8757 26.235 16.8762C26.5067 16.8754 26.7752 16.8167 27.0225 16.7039C27.4082 16.5344 27.7245 16.2383 27.9189 15.8644C28.1133 15.4906 28.1741 15.0616 28.0912 14.6484ZM3.75021 15L5.6756 4.6875L10.6057 6.13711L3.75021 15ZM20.6252 24.375H15.9377V22.8879L17.5385 21.2883C17.7144 21.1124 17.8132 20.8738 17.8132 20.625C17.8132 20.3762 17.7144 20.1376 17.5385 19.9617C17.3626 19.7858 17.124 19.687 16.8752 19.687C16.6264 19.687 16.3878 19.7858 16.2119 19.9617L15.0002 21.1746L13.7885 19.9617C13.6126 19.7858 13.374 19.687 13.1252 19.687C12.8764 19.687 12.6378 19.7858 12.4619 19.9617C12.286 20.1376 12.1872 20.3762 12.1872 20.625C12.1872 20.8738 12.286 21.1124 12.4619 21.2883L14.0627 22.8879V24.375H9.37521C8.62929 24.375 7.91392 24.0787 7.38648 23.5512C6.85903 23.0238 6.56271 22.3084 6.56271 21.5625V14.4269L12.6471 6.5625H17.3522L23.4377 14.4269V21.5625C23.4377 22.3084 23.1414 23.0238 22.6139 23.5512C22.0865 24.0787 21.3711 24.375 20.6252 24.375ZM26.2502 15L19.3947 6.13711L24.3248 4.6875L26.2502 15ZM12.1877 16.4062C12.1877 16.6844 12.1052 16.9563 11.9507 17.1875C11.7962 17.4188 11.5766 17.599 11.3196 17.7054C11.0627 17.8119 10.7799 17.8397 10.5071 17.7855C10.2343 17.7312 9.98376 17.5973 9.78709 17.4006C9.59043 17.2039 9.45649 16.9534 9.40223 16.6806C9.34797 16.4078 9.37582 16.1251 9.48226 15.8681C9.58869 15.6111 9.76894 15.3915 10.0002 15.237C10.2314 15.0825 10.5033 15 10.7815 15C11.1544 15 11.5121 15.1482 11.7758 15.4119C12.0396 15.6756 12.1877 16.0333 12.1877 16.4062ZM20.6252 16.4062C20.6252 16.6844 20.5427 16.9563 20.3882 17.1875C20.2337 17.4188 20.0141 17.599 19.7571 17.7054C19.5001 17.8119 19.2174 17.8397 18.9446 17.7855C18.6718 17.7312 18.4213 17.5973 18.2246 17.4006C18.0279 17.2039 17.894 16.9534 17.8397 16.6806C17.7855 16.4078 17.8133 16.1251 17.9198 15.8681C18.0262 15.6111 18.2064 15.3915 18.4377 15.237C18.6689 15.0825 18.9408 15 19.219 15C19.5919 15 19.9496 15.1482 20.2133 15.4119C20.4771 15.6756 20.6252 16.0333 20.6252 16.4062Z"/>
</g>
</svg>
