<svg id="ong_logo" width="55" height="55" viewBox="0 0 55 55" fill="none" xmlns="http://www.w3.org/2000/svg">
<g clip-path="url(#clip0_132_50)">
<path d="M45.2272 14.3677C46.6306 7.76507 43.2521 1.45263 37.6812 0.268482C32.1102 -0.915666 26.4563 3.47689 25.0529 10.0795C23.6494 16.6822 27.0279 22.9946 32.5989 24.1788C38.1698 25.3629 43.8237 20.9703 45.2272 14.3677Z" fill="#55ACEE"/>
<path d="M14.8563 22.4385V24.8508C11.1682 25.6529 6.63531 27.6788 5.95087 30.5663C3.80893 39.5985 4.3849 53.596 4.3849 53.7961V54.0008C4.3849 55 5.39781 55 6.39545 55H30.9881C31.9857 55 32.9971 55 32.9971 54.0008V30.5663C32.9971 27.94 30.8384 25.3138 25.9205 24.7088V22.4385H14.8563Z" fill="#226699"/>
<path d="M40.1438 20.324V24.8508C43.8318 25.6529 48.3647 27.6787 49.0492 30.5662C51.1896 39.5999 50.6152 53.5975 50.6152 53.7961V54.0008C50.6152 54.9999 49.6022 54.9999 48.6046 54.9999H24.012C23.0143 54.9999 22.0029 54.9999 22.0029 54.0008V30.5662C22.0029 27.9399 24.1617 25.3137 29.0796 24.7087V22.4384L40.1438 20.324Z" fill="#55ACEE"/>
<path d="M22.3901 24.1773C27.9611 22.9932 31.3396 16.6807 29.9361 10.0781C28.5327 3.47545 22.8788 -0.917104 17.3078 0.267044C11.7369 1.45119 8.35841 7.76363 9.76185 14.3663C11.1653 20.9689 16.8192 25.3615 22.3901 24.1773Z" fill="#226699"/>
<path d="M29.1684 24.5789C27.167 25.161 23.9113 25.4131 20.1575 23.9953C16.196 22.4981 12.5522 21.0253 11.1314 20.5303C9.83891 20.0796 6.54044 20.4799 5.80558 21.8259C5.07071 23.1719 4.65516 25.6224 6.47321 27.416C8.29127 29.2096 17.8674 32.7495 20.5746 34.3414C21.9924 35.1756 21.9099 40.1821 21.9924 44.2705C22.1192 50.4473 33.272 23.3857 29.1684 24.5789Z" fill="#55ACEE"/>
<path d="M18.6894 38.6268C20.7228 39.0821 24.1955 39.8658 27.8545 38.2158C31.7152 36.4742 35.0534 34.0419 36.4391 33.4599C37.701 32.9297 40.367 32.4164 41.8352 34.4208C42.7427 35.6583 43.2209 38.1394 41.519 40.0415C39.8155 41.9451 33.1208 46.0289 28.1677 47.2251C23.9678 48.2396 17.5237 48.1418 15.4673 46.0136C12.2574 42.6907 15.8966 38.0004 18.6894 38.6268ZM38.1808 26.3312C38.1808 23.349 40.8147 21.7235 43.8931 20.5303C45.1688 20.0353 48.4841 20.4799 49.219 21.8258C49.9538 23.1718 50.3694 25.6224 48.5513 27.416C46.7333 29.2096 38.1808 30.9207 38.1808 26.3312Z" fill="#226699"/>
</g>
<defs>
<clipPath id="clip0_132_50">
<rect width="55" height="55" fill="white"/>
</clipPath>
</defs>
</svg>
